# xmcd CD database file
#
# Track frame offsets:
#	150
#	21287
#	42045
#	62090
#	84042
#	105840
#	126605
#	149085
#
# Disc length: 2260 seconds
#
# Revision: 0
# Processed by: cddbd v1.5.1PL0 Copyright (c) Steve Scherf et al.
# Submitted via: CDex 1.50
#
DISCID=6608d208
DTITLE=Cali Aleman - Cali
DYEAR=1994
DGENRE=Salsa
TTITLE0=Amor sin control
TTITLE1=Tu amor es fuego
TTITLE2=Ella
TTITLE3=Vivir sin ti
TTITLE4=Intente
TTITLE5=Acariciandome la piel
TTITLE6=Vas a acordarte de mi
TTITLE7=Linda mujer
EXTD=YEAR: 1994
EXTT0=
EXTT1=
EXTT2=
EXTT3=
EXTT4=
EXTT5=
EXTT6=
EXTT7=
PLAYORDER=
